<?xml version="1.0" encoding="UTF-8"?>
<!DOCTYPE svg PUBLIC "-//W3C//DTD SVG 1.1//EN" "http://www.w3.org/Graphics/SVG/1.1/DTD/svg11.dtd">
<!-- Creator: CorelDRAW X5 -->
<svg xmlns="http://www.w3.org/2000/svg" xml:space="preserve" width="21.336mm" height="6.2652mm" style="shape-rendering:geometricPrecision; text-rendering:geometricPrecision; image-rendering:optimizeQuality; fill-rule:evenodd; clip-rule:evenodd"
viewBox="0 0 21.336 6.2652"
 xmlns:xlink="http://www.w3.org/1999/xlink">
 <defs>
  <style type="text/css">
   <![CDATA[
    .fil1 {fill:#010101}
    .fil0 {fill:#5B5B5B;fill-rule:nonzero}
   ]]>
  </style>
 </defs>
 <g id="Слой_x0020_1">
  <metadata id="CorelCorpID_0Corel-Layer"/>
  <g id="_271754288">
   <path id="_275113056" class="fil0" d="M0.9704 6.2362l0 -0.427 0.1611 0c0.0283,0 0.05,0.0014 0.0649,0.0041 0.021,0.0035 0.0385,0.0101 0.0528,0.02 0.0141,0.0097 0.0255,0.0235 0.0342,0.0412 0.0086,0.0177 0.0129,0.037 0.0129,0.0582 0,0.0363 -0.0115,0.0671 -0.0346,0.0923 -0.0232,0.025 -0.0649,0.0377 -0.1253,0.0377l-0.1095 0 0 0.1735 -0.0565 0zm0.0565 -0.224l0.1104 0c0.0365,0 0.0625,-0.0067 0.0778,-0.0203 0.0153,-0.0137 0.0229,-0.0327 0.0229,-0.0574 0,-0.0179 -0.0044,-0.0332 -0.0135,-0.0459 -0.009,-0.0128 -0.0209,-0.0211 -0.0357,-0.0252 -0.0095,-0.0025 -0.027,-0.0038 -0.0527,-0.0038l-0.1092 0 0 0.1526zm0.6528 0.224l0 -0.427 0.1893 0c0.0381,0 0.067,0.0039 0.0868,0.0116 0.0198,0.0076 0.0356,0.0211 0.0475,0.0405 0.0118,0.0195 0.0177,0.041 0.0177,0.0644 0,0.0304 -0.0098,0.0558 -0.0294,0.0766 -0.0196,0.0208 -0.05,0.034 -0.0909,0.0397 0.015,0.0071 0.0263,0.0142 0.0341,0.0212 0.0165,0.0152 0.0321,0.0342 0.0469,0.0568l0.0743 0.1162 -0.0711 0 -0.0565 -0.0888c-0.0165,-0.0256 -0.0301,-0.0453 -0.0408,-0.0588 -0.0107,-0.0136 -0.0202,-0.0232 -0.0287,-0.0285 -0.0084,-0.0055 -0.017,-0.0093 -0.0257,-0.0115 -0.0065,-0.0013 -0.0169,-0.0019 -0.0315,-0.0019l-0.0656 0 0 0.1895 -0.0564 0zm0.0564 -0.2385l0.1215 0c0.0258,0 0.0461,-0.0027 0.0606,-0.008 0.0146,-0.0054 0.0256,-0.0139 0.0332,-0.0257 0.0075,-0.0117 0.0113,-0.0244 0.0113,-0.0383 0,-0.0201 -0.0072,-0.0367 -0.0219,-0.0498 -0.0147,-0.013 -0.0378,-0.0194 -0.0695,-0.0194l-0.1352 0 0 0.1412zm0.6668 0.0306c0,-0.0709 0.019,-0.1264 0.0571,-0.1665 0.038,-0.0401 0.0871,-0.0601 0.1474,-0.0601 0.0394,0 0.075,0.0094 0.1066,0.0282 0.0316,0.0189 0.0558,0.0451 0.0724,0.0788 0.0166,0.0337 0.0248,0.0719 0.0248,0.1146 0,0.0433 -0.0086,0.0821 -0.0261,0.1162 -0.0175,0.0342 -0.0423,0.0601 -0.0743,0.0777 -0.0321,0.0176 -0.0666,0.0263 -0.1037,0.0263 -0.0403,0 -0.0762,-0.0096 -0.1078,-0.0291 -0.0317,-0.0194 -0.0557,-0.046 -0.072,-0.0796 -0.0163,-0.0335 -0.0244,-0.0691 -0.0244,-0.1065zm0.0583 0.0008c0,0.0516 0.0138,0.092 0.0414,0.1216 0.0278,0.0297 0.0624,0.0445 0.1042,0.0445 0.0426,0 0.0775,-0.0149 0.105,-0.0449 0.0274,-0.0299 0.0413,-0.0723 0.0413,-0.1273 0,-0.0347 -0.006,-0.065 -0.0177,-0.091 -0.0118,-0.0259 -0.029,-0.046 -0.0515,-0.0603 -0.0227,-0.0143 -0.0481,-0.0214 -0.0762,-0.0214 -0.0401,0 -0.0745,0.0137 -0.1033,0.0412 -0.0288,0.0275 -0.0432,0.0734 -0.0432,0.1376zm0.7363 0.2071l0 -0.427 0.2881 0 0 0.0504 -0.2316 0 0 0.1323 0.2004 0 0 0.0504 -0.2004 0 0 0.1939 -0.0565 0zm0.6732 0l0 -0.427 0.3087 0 0 0.0504 -0.2523 0 0 0.1308 0.2363 0 0 0.0501 -0.2363 0 0 0.1453 0.2622 0 0 0.0504 -0.3186 0zm0.688 -0.1372l0.0533 -0.0046c0.0025,0.0213 0.0083,0.0388 0.0176,0.0526 0.0092,0.0137 0.0235,0.0247 0.0429,0.0332 0.0194,0.0084 0.0413,0.0126 0.0655,0.0126 0.0216,0 0.0406,-0.0032 0.0571,-0.0095 0.0165,-0.0065 0.0288,-0.0153 0.0369,-0.0264 0.0081,-0.0112 0.0121,-0.0234 0.0121,-0.0366 0,-0.0134 -0.0038,-0.025 -0.0117,-0.0351 -0.0078,-0.01 -0.0206,-0.0184 -0.0384,-0.0251 -0.0115,-0.0045 -0.0368,-0.0115 -0.076,-0.0209 -0.0392,-0.0095 -0.0668,-0.0183 -0.0825,-0.0267 -0.0204,-0.0106 -0.0356,-0.0239 -0.0456,-0.0397 -0.0099,-0.0158 -0.0149,-0.0335 -0.0149,-0.0532 0,-0.0215 0.006,-0.0417 0.0183,-0.0604 0.0122,-0.0188 0.0301,-0.033 0.0536,-0.0427 0.0235,-0.0097 0.0496,-0.0145 0.0783,-0.0145 0.0317,0 0.0596,0.005 0.0838,0.0153 0.0242,0.0101 0.0428,0.0251 0.0558,0.0449 0.0129,0.0198 0.02,0.0423 0.021,0.0673l-0.0542 0.0041c-0.003,-0.0269 -0.0128,-0.0474 -0.0296,-0.0611 -0.0168,-0.0139 -0.0416,-0.0207 -0.0744,-0.0207 -0.0342,0 -0.0591,0.0062 -0.0748,0.0188 -0.0156,0.0125 -0.0234,0.0276 -0.0234,0.0452 0,0.0154 0.0055,0.028 0.0166,0.0379 0.0109,0.0099 0.0392,0.0201 0.0852,0.0304 0.0459,0.0104 0.0774,0.0195 0.0945,0.0272 0.0249,0.0116 0.0433,0.0261 0.0551,0.0436 0.0118,0.0176 0.0177,0.0379 0.0177,0.0607 0,0.0228 -0.0064,0.0442 -0.0195,0.0643 -0.013,0.0201 -0.0317,0.0357 -0.056,0.0469 -0.0244,0.0111 -0.0518,0.0167 -0.0823,0.0167 -0.0387,0 -0.0711,-0.0056 -0.0971,-0.0169 -0.0262,-0.0112 -0.0466,-0.0281 -0.0616,-0.0508 -0.0148,-0.0226 -0.0226,-0.0482 -0.0233,-0.0768zm0.7084 0l0.0533 -0.0046c0.0024,0.0213 0.0083,0.0388 0.0176,0.0526 0.0092,0.0137 0.0235,0.0247 0.0429,0.0332 0.0194,0.0084 0.0413,0.0126 0.0655,0.0126 0.0216,0 0.0406,-0.0032 0.0571,-0.0095 0.0165,-0.0065 0.0288,-0.0153 0.0369,-0.0264 0.008,-0.0112 0.0121,-0.0234 0.0121,-0.0366 0,-0.0134 -0.0039,-0.025 -0.0117,-0.0351 -0.0078,-0.01 -0.0206,-0.0184 -0.0384,-0.0251 -0.0115,-0.0045 -0.0368,-0.0115 -0.076,-0.0209 -0.0392,-0.0095 -0.0668,-0.0183 -0.0825,-0.0267 -0.0204,-0.0106 -0.0356,-0.0239 -0.0456,-0.0397 -0.01,-0.0158 -0.0149,-0.0335 -0.0149,-0.0532 0,-0.0215 0.006,-0.0417 0.0183,-0.0604 0.0122,-0.0188 0.0301,-0.033 0.0536,-0.0427 0.0235,-0.0097 0.0496,-0.0145 0.0783,-0.0145 0.0317,0 0.0596,0.005 0.0838,0.0153 0.0242,0.0101 0.0428,0.0251 0.0558,0.0449 0.0129,0.0198 0.02,0.0423 0.021,0.0673l-0.0542 0.0041c-0.003,-0.0269 -0.0128,-0.0474 -0.0296,-0.0611 -0.0168,-0.0139 -0.0416,-0.0207 -0.0744,-0.0207 -0.0342,0 -0.0591,0.0062 -0.0748,0.0188 -0.0156,0.0125 -0.0234,0.0276 -0.0234,0.0452 0,0.0154 0.0055,0.028 0.0166,0.0379 0.0109,0.0099 0.0392,0.0201 0.0852,0.0304 0.0459,0.0104 0.0774,0.0195 0.0945,0.0272 0.0249,0.0116 0.0433,0.0261 0.0551,0.0436 0.0118,0.0176 0.0177,0.0379 0.0177,0.0607 0,0.0228 -0.0065,0.0442 -0.0195,0.0643 -0.013,0.0201 -0.0317,0.0357 -0.0561,0.0469 -0.0243,0.0111 -0.0518,0.0167 -0.0822,0.0167 -0.0387,0 -0.0711,-0.0056 -0.0971,-0.0169 -0.0262,-0.0112 -0.0466,-0.0281 -0.0616,-0.0508 -0.0148,-0.0226 -0.0226,-0.0482 -0.0233,-0.0768zm0.7372 0.1372l0 -0.427 0.0565 0 0 0.427 -0.0565 0zm0.4494 -0.2079c0,-0.0709 0.019,-0.1264 0.0571,-0.1665 0.038,-0.0401 0.0872,-0.0601 0.1474,-0.0601 0.0394,0 0.075,0.0094 0.1066,0.0282 0.0316,0.0189 0.0558,0.0451 0.0724,0.0788 0.0166,0.0337 0.0248,0.0719 0.0248,0.1146 0,0.0433 -0.0086,0.0821 -0.0261,0.1162 -0.0175,0.0342 -0.0423,0.0601 -0.0743,0.0777 -0.0321,0.0176 -0.0666,0.0263 -0.1037,0.0263 -0.0402,0 -0.0762,-0.0096 -0.1078,-0.0291 -0.0317,-0.0194 -0.0556,-0.046 -0.072,-0.0796 -0.0162,-0.0335 -0.0244,-0.0691 -0.0244,-0.1065zm0.0583 0.0008c0,0.0516 0.0138,0.092 0.0414,0.1216 0.0278,0.0297 0.0624,0.0445 0.1042,0.0445 0.0426,0 0.0776,-0.0149 0.105,-0.0449 0.0274,-0.0299 0.0413,-0.0723 0.0413,-0.1273 0,-0.0347 -0.006,-0.065 -0.0177,-0.091 -0.0118,-0.0259 -0.029,-0.046 -0.0515,-0.0603 -0.0227,-0.0143 -0.0481,-0.0214 -0.0762,-0.0214 -0.0401,0 -0.0745,0.0137 -0.1033,0.0412 -0.0288,0.0275 -0.0432,0.0734 -0.0432,0.1376zm0.7328 0.2071l0 -0.427 0.058 0 0.2243 0.3353 0 -0.3353 0.0542 0 0 0.427 -0.058 0 -0.2243 -0.3355 0 0.3355 -0.0542 0zm0.695 0l0.164 -0.427 0.0609 0 0.1748 0.427 -0.0645 0 -0.0498 -0.1293 -0.1785 0 -0.0469 0.1293 -0.06 0zm0.1232 -0.1753l0.1448 0 -0.0446 -0.1182c-0.0135,-0.036 -0.0237,-0.0655 -0.0302,-0.0886 -0.0055,0.0274 -0.0132,0.0545 -0.0231,0.0816l-0.0469 0.1252zm0.6297 0.1753l0 -0.427 0.0566 0 0 0.3766 0.2103 0 0 0.0504 -0.2669 0zm1.3658 -0.1675l0 -0.05 0.1809 -0.0003 0 0.1584c-0.0277,0.0222 -0.0564,0.0388 -0.0859,0.05 -0.0295,0.0111 -0.0599,0.0167 -0.0909,0.0167 -0.0419,0 -0.0801,-0.0089 -0.1143,-0.0269 -0.0343,-0.0179 -0.0602,-0.044 -0.0777,-0.0779 -0.0175,-0.034 -0.0262,-0.072 -0.0262,-0.1139 0,-0.0416 0.0087,-0.0804 0.0261,-0.1164 0.0173,-0.0361 0.0424,-0.0628 0.075,-0.0803 0.0326,-0.0174 0.0702,-0.0261 0.1127,-0.0261 0.0309,0 0.0588,0.0049 0.0838,0.015 0.0249,0.0099 0.0445,0.0238 0.0586,0.0417 0.0142,0.0179 0.025,0.0412 0.0324,0.0699l-0.051 0.0141c-0.0064,-0.0218 -0.0144,-0.0389 -0.0238,-0.0514 -0.0096,-0.0124 -0.0232,-0.0223 -0.0409,-0.0298 -0.0176,-0.0074 -0.0373,-0.0112 -0.0588,-0.0112 -0.0258,0 -0.0482,0.004 -0.067,0.0118 -0.0189,0.0079 -0.034,0.0182 -0.0456,0.031 -0.0115,0.0129 -0.0205,0.0269 -0.0269,0.0423 -0.0109,0.0263 -0.0163,0.055 -0.0163,0.0859 0,0.0381 0.0065,0.0699 0.0196,0.0955 0.0132,0.0257 0.0322,0.0447 0.0573,0.0571 0.0251,0.0124 0.0516,0.0187 0.0798,0.0187 0.0245,0 0.0484,-0.0048 0.0716,-0.0142 0.0234,-0.0094 0.041,-0.0194 0.053,-0.0301l0 -0.0796 -0.1255 0zm0.5756 0.1675l0 -0.427 0.1893 0c0.0381,0 0.067,0.0039 0.0868,0.0116 0.0198,0.0076 0.0356,0.0211 0.0475,0.0405 0.0119,0.0195 0.0177,0.041 0.0177,0.0644 0,0.0304 -0.0097,0.0558 -0.0294,0.0766 -0.0196,0.0208 -0.0499,0.034 -0.0909,0.0397 0.015,0.0071 0.0264,0.0142 0.0341,0.0212 0.0165,0.0152 0.0321,0.0342 0.047,0.0568l0.0742 0.1162 -0.0711 0 -0.0564 -0.0888c-0.0165,-0.0256 -0.0302,-0.0453 -0.0409,-0.0588 -0.0106,-0.0136 -0.0202,-0.0232 -0.0286,-0.0285 -0.0085,-0.0055 -0.017,-0.0093 -0.0258,-0.0115 -0.0064,-0.0013 -0.0169,-0.0019 -0.0315,-0.0019l-0.0655 0 0 0.1895 -0.0565 0zm0.0565 -0.2385l0.1215 0c0.0257,0 0.046,-0.0027 0.0605,-0.008 0.0146,-0.0054 0.0257,-0.0139 0.0332,-0.0257 0.0076,-0.0117 0.0114,-0.0244 0.0114,-0.0383 0,-0.0201 -0.0073,-0.0367 -0.022,-0.0498 -0.0146,-0.013 -0.0378,-0.0194 -0.0695,-0.0194l-0.1351 0 0 0.1412zm0.637 0.2385l0.1641 -0.427 0.0608 0 0.1748 0.427 -0.0644 0 -0.0499 -0.1293 -0.1785 0 -0.0468 0.1293 -0.0601 0zm0.1232 -0.1753l0.1448 0 -0.0446 -0.1182c-0.0135,-0.036 -0.0237,-0.0655 -0.0302,-0.0886 -0.0055,0.0274 -0.0131,0.0545 -0.0231,0.0816l-0.0469 0.1252zm0.6321 0.1753l0 -0.427 0.1611 0c0.0283,0 0.05,0.0014 0.0649,0.0041 0.021,0.0035 0.0386,0.0101 0.0528,0.02 0.0141,0.0097 0.0256,0.0235 0.0342,0.0412 0.0087,0.0177 0.0129,0.037 0.0129,0.0582 0,0.0363 -0.0115,0.0671 -0.0346,0.0923 -0.0231,0.025 -0.0649,0.0377 -0.1252,0.0377l-0.1096 0 0 0.1735 -0.0565 0zm0.0565 -0.224l0.1105 0c0.0364,0 0.0624,-0.0067 0.0777,-0.0203 0.0153,-0.0137 0.023,-0.0327 0.023,-0.0574 0,-0.0179 -0.0045,-0.0332 -0.0135,-0.0459 -0.0091,-0.0128 -0.0209,-0.0211 -0.0357,-0.0252 -0.0096,-0.0025 -0.0271,-0.0038 -0.0527,-0.0038l-0.1093 0 0 0.1526zm0.6536 0.224l0 -0.427 0.0566 0 0 0.1754 0.2219 0 0 -0.1754 0.0566 0 0 0.427 -0.0566 0 0 -0.2012 -0.2219 0 0 0.2012 -0.0566 0zm0.7493 0l0 -0.427 0.0564 0 0 0.427 -0.0564 0zm0.7712 -0.1497l0.0566 0.0143c-0.0119,0.0464 -0.0333,0.0817 -0.064,0.1062 -0.0308,0.0244 -0.0684,0.0365 -0.1129,0.0365 -0.046,0 -0.0834,-0.0093 -0.1123,-0.028 -0.0288,-0.0188 -0.0508,-0.046 -0.0658,-0.0815 -0.015,-0.0355 -0.0226,-0.0737 -0.0226,-0.1145 0,-0.0444 0.0085,-0.0832 0.0255,-0.1163 0.017,-0.0331 0.0412,-0.0583 0.0726,-0.0755 0.0313,-0.0172 0.0658,-0.0257 0.1035,-0.0257 0.0427,0 0.0786,0.0108 0.1078,0.0326 0.0291,0.0218 0.0494,0.0523 0.0608,0.0917l-0.0556 0.0132c-0.0099,-0.0312 -0.0242,-0.0537 -0.0431,-0.0679 -0.0188,-0.0143 -0.0425,-0.0213 -0.0711,-0.0213 -0.0328,0 -0.0602,0.0078 -0.0822,0.0236 -0.0221,0.0158 -0.0376,0.0368 -0.0465,0.0634 -0.0089,0.0264 -0.0134,0.0538 -0.0134,0.0819 0,0.0364 0.0053,0.068 0.0158,0.0951 0.0107,0.0271 0.0271,0.0474 0.0494,0.0608 0.0224,0.0134 0.0466,0.0201 0.0726,0.0201 0.0316,0 0.0584,-0.0092 0.0803,-0.0274 0.022,-0.0182 0.0368,-0.0454 0.0446,-0.0813zm0.9802 0.1497l0 -0.427 0.147 0c0.0332,0 0.0586,0.0021 0.0761,0.0062 0.0244,0.0056 0.0453,0.0158 0.0626,0.0305 0.0225,0.0191 0.0394,0.0434 0.0505,0.073 0.0112,0.0296 0.0168,0.0634 0.0168,0.1015 0,0.0324 -0.0038,0.0611 -0.0114,0.0862 -0.0076,0.0251 -0.0172,0.0458 -0.0291,0.0622 -0.0119,0.0164 -0.0248,0.0294 -0.0389,0.0387 -0.014,0.0095 -0.031,0.0166 -0.0509,0.0215 -0.02,0.0049 -0.0429,0.0072 -0.0686,0.0072l-0.1541 0zm0.0564 -0.0504l0.0912 0c0.0282,0 0.0503,-0.0025 0.0663,-0.0078 0.016,-0.0053 0.0288,-0.0126 0.0383,-0.0222 0.0134,-0.0133 0.0239,-0.0314 0.0313,-0.054 0.0075,-0.0226 0.0113,-0.05 0.0113,-0.0823 0,-0.0446 -0.0074,-0.0789 -0.022,-0.1029 -0.0147,-0.0241 -0.0325,-0.0401 -0.0535,-0.0482 -0.0151,-0.0059 -0.0396,-0.0088 -0.0731,-0.0088l-0.0898 0 0 0.3262zm0.6861 0.0504l0 -0.427 0.3087 0 0 0.0504 -0.2523 0 0 0.1308 0.2363 0 0 0.0501 -0.2363 0 0 0.1453 0.2622 0 0 0.0504 -0.3186 0zm0.688 -0.1372l0.0533 -0.0046c0.0024,0.0213 0.0083,0.0388 0.0176,0.0526 0.0092,0.0137 0.0235,0.0247 0.0429,0.0332 0.0194,0.0084 0.0413,0.0126 0.0655,0.0126 0.0216,0 0.0406,-0.0032 0.0571,-0.0095 0.0165,-0.0065 0.0288,-0.0153 0.0369,-0.0264 0.008,-0.0112 0.0121,-0.0234 0.0121,-0.0366 0,-0.0134 -0.0038,-0.025 -0.0117,-0.0351 -0.0078,-0.01 -0.0206,-0.0184 -0.0384,-0.0251 -0.0115,-0.0045 -0.0368,-0.0115 -0.076,-0.0209 -0.0392,-0.0095 -0.0668,-0.0183 -0.0825,-0.0267 -0.0204,-0.0106 -0.0356,-0.0239 -0.0456,-0.0397 -0.0099,-0.0158 -0.0149,-0.0335 -0.0149,-0.0532 0,-0.0215 0.006,-0.0417 0.0183,-0.0604 0.0122,-0.0188 0.0301,-0.033 0.0536,-0.0427 0.0235,-0.0097 0.0496,-0.0145 0.0783,-0.0145 0.0317,0 0.0596,0.005 0.0838,0.0153 0.0242,0.0101 0.0428,0.0251 0.0558,0.0449 0.0129,0.0198 0.02,0.0423 0.021,0.0673l-0.0542 0.0041c-0.003,-0.0269 -0.0128,-0.0474 -0.0296,-0.0611 -0.0168,-0.0139 -0.0416,-0.0207 -0.0744,-0.0207 -0.0342,0 -0.0591,0.0062 -0.0748,0.0188 -0.0156,0.0125 -0.0234,0.0276 -0.0234,0.0452 0,0.0154 0.0055,0.028 0.0166,0.0379 0.0109,0.0099 0.0392,0.0201 0.0852,0.0304 0.0459,0.0104 0.0774,0.0195 0.0945,0.0272 0.0249,0.0116 0.0433,0.0261 0.0551,0.0436 0.0118,0.0176 0.0177,0.0379 0.0177,0.0607 0,0.0228 -0.0064,0.0442 -0.0195,0.0643 -0.013,0.0201 -0.0317,0.0357 -0.0561,0.0469 -0.0243,0.0111 -0.0518,0.0167 -0.0822,0.0167 -0.0387,0 -0.0711,-0.0056 -0.0971,-0.0169 -0.0262,-0.0112 -0.0466,-0.0281 -0.0616,-0.0508 -0.0148,-0.0226 -0.0226,-0.0482 -0.0233,-0.0768zm0.7372 0.1372l0 -0.427 0.0565 0 0 0.427 -0.0565 0zm0.6664 -0.1675l0 -0.05 0.1809 -0.0003 0 0.1584c-0.0278,0.0222 -0.0564,0.0388 -0.0859,0.05 -0.0295,0.0111 -0.0599,0.0167 -0.0909,0.0167 -0.0419,0 -0.0801,-0.0089 -0.1143,-0.0269 -0.0343,-0.0179 -0.0602,-0.044 -0.0777,-0.0779 -0.0175,-0.034 -0.0262,-0.072 -0.0262,-0.1139 0,-0.0416 0.0087,-0.0804 0.0261,-0.1164 0.0173,-0.0361 0.0424,-0.0628 0.075,-0.0803 0.0326,-0.0174 0.0702,-0.0261 0.1127,-0.0261 0.0309,0 0.0588,0.0049 0.0838,0.015 0.0249,0.0099 0.0445,0.0238 0.0586,0.0417 0.0142,0.0179 0.025,0.0412 0.0324,0.0699l-0.051 0.0141c-0.0064,-0.0218 -0.0144,-0.0389 -0.0238,-0.0514 -0.0096,-0.0124 -0.0232,-0.0223 -0.0409,-0.0298 -0.0176,-0.0074 -0.0373,-0.0112 -0.0588,-0.0112 -0.0258,0 -0.0482,0.004 -0.067,0.0118 -0.0189,0.0079 -0.034,0.0182 -0.0456,0.031 -0.0115,0.0129 -0.0205,0.0269 -0.0269,0.0423 -0.0109,0.0263 -0.0164,0.055 -0.0164,0.0859 0,0.0381 0.0066,0.0699 0.0197,0.0955 0.0131,0.0257 0.0322,0.0447 0.0573,0.0571 0.025,0.0124 0.0516,0.0187 0.0797,0.0187 0.0246,0 0.0485,-0.0048 0.0717,-0.0142 0.0234,-0.0094 0.041,-0.0194 0.053,-0.0301l0 -0.0796 -0.1255 0zm0.5741 0.1675l0 -0.427 0.058 0 0.2243 0.3353 0 -0.3353 0.0542 0 0 0.427 -0.058 0 -0.2243 -0.3355 0 0.3355 -0.0542 0zm0.7431 0l0 -0.427 0.3087 0 0 0.0504 -0.2522 0 0 0.1308 0.2362 0 0 0.0501 -0.2362 0 0 0.1453 0.2622 0 0 0.0504 -0.3187 0zm0.7081 0l0 -0.427 0.1893 0c0.0381,0 0.067,0.0039 0.0868,0.0116 0.0198,0.0076 0.0356,0.0211 0.0475,0.0405 0.0119,0.0195 0.0177,0.041 0.0177,0.0644 0,0.0304 -0.0097,0.0558 -0.0294,0.0766 -0.0196,0.0208 -0.0499,0.034 -0.0909,0.0397 0.015,0.0071 0.0264,0.0142 0.0341,0.0212 0.0165,0.0152 0.0321,0.0342 0.047,0.0568l0.0742 0.1162 -0.0711 0 -0.0564 -0.0888c-0.0165,-0.0256 -0.0302,-0.0453 -0.0409,-0.0588 -0.0106,-0.0136 -0.0202,-0.0232 -0.0286,-0.0285 -0.0085,-0.0055 -0.017,-0.0093 -0.0258,-0.0115 -0.0065,-0.0013 -0.0169,-0.0019 -0.0315,-0.0019l-0.0655 0 0 0.1895 -0.0565 0zm0.0565 -0.2385l0.1215 0c0.0257,0 0.046,-0.0027 0.0605,-0.008 0.0146,-0.0054 0.0257,-0.0139 0.0332,-0.0257 0.0076,-0.0117 0.0114,-0.0244 0.0114,-0.0383 0,-0.0201 -0.0073,-0.0367 -0.022,-0.0498 -0.0146,-0.013 -0.0378,-0.0194 -0.0695,-0.0194l-0.1351 0 0 0.1412z"/>
   <g>
    <path id="_275113176" class="fil1" d="M8.7803 2.686c0.0531,-0.0798 0.1614,-0.1218 0.286,-0.1996 0.0969,-0.0606 0.2047,-0.1374 0.3299,-0.1818l-0.1367 0.5743c-0.2499,0.0299 -0.3896,-0.0212 -0.4792,-0.1929zm-1.7139 0.0916c-0.0434,-0.1821 0.5684,-0.8831 0.8204,-0.8468 0.051,0.1754 0.0096,0.2629 -0.0774,0.3518 -0.1229,0.1258 -0.5768,0.5354 -0.743,0.495zm4.6704 -0.3482c0.0436,-0.2216 0.218,-0.507 0.4108,-0.5421 0.0003,0.2312 -0.2756,0.4788 -0.4108,0.5421zm-1.7107 0.3232c0.0003,-0.4831 0.854,-1.5001 0.8408,-2.0098 -0.2378,0.0503 -0.4799,0.6748 -0.6106,0.9142 -0.2017,0.3693 -0.3092,0.6096 -0.4365,1.0373 -0.0987,0.0632 -0.2058,0.1187 -0.3558,0.1366 0.0336,-0.2654 0.2669,-0.7366 0.2398,-0.8627 -0.0454,-0.0156 0.0682,-0.0435 -0.0797,-0.0076 -0.033,0.0081 -1.0605,0.6342 -1.3272,0.7528 -0.3181,0.1414 -0.2073,0.2384 -0.4901,0.2283 -0.1121,-0.244 0.0863,-0.4506 0.2216,-0.5816 0.1708,-0.1652 0.122,-0.298 0.0803,-0.5018 -0.1126,-0.5508 -0.953,0.3766 -1.0863,0.5476 -0.0471,0.0605 -0.1791,0.2859 -0.2491,0.3221 -0.2729,0.1412 -0.5612,0.3548 -0.75,-0.0162 -0.2156,-0.4238 0.1021,-0.5336 0.1318,-0.8734 -0.1807,0.0006 -0.4443,0.4292 -0.5936,0.6152 -0.1004,0.125 -0.4755,0.4763 -0.7636,0.4313 -0.1607,-0.1351 -0.1168,-0.3857 -0.012,-0.5529 0.0926,-0.1477 0.1822,-0.2647 0.2755,-0.4076 0.067,-0.1025 0.0522,-0.1181 0.1869,-0.1548l0.6876 -0.1637c0.1175,-0.0315 0.0823,-0.0309 0.1144,-0.0673l-0.8063 0.1015c0.077,-0.1973 0.3571,-0.4846 0.2722,-0.7169 -0.0437,-0.0262 0.0695,-0.0459 -0.0845,-0.0243 -0.1115,0.0156 -0.2607,0.2351 -0.3159,0.3121 -0.1055,0.1471 -0.1691,0.3021 -0.2721,0.4679 -0.2682,0.046 -0.6099,0.0188 -0.651,0.0657 -0.1412,0.3265 0.3729,0.1513 0.5686,0.151 -0.1184,0.2216 -0.2212,0.5041 -0.3292,0.5958 -0.3083,0.2618 -0.4757,0.1892 -0.4903,0.4286 0.2005,-0.002 0.391,-0.212 0.5599,-0.2801 0.0304,0.4653 0.3056,0.5049 0.614,0.3361 0.3651,-0.1999 0.5578,-0.4184 0.6523,-0.4642 0.0281,0.2822 0.1356,0.4525 0.3555,0.526 0.2839,0.0949 0.4949,-0.0764 0.6748,-0.1556 0.0866,0.4389 0.6509,-0.0777 0.7624,-0.1311 0.0497,0.7007 0.6913,0.1325 0.9935,0.0233 0.3453,0.5066 0.7587,0.3462 1.2534,0.1056 0.0877,0.3702 0.3908,0.0818 0.489,-0.0455 0.0378,-0.049 0.0664,-0.0731 0.1028,-0.1241 0.0804,-0.1125 0.1805,-0.2906 0.2863,-0.3302 0.0384,0.1671 -0.0213,0.2992 0.0171,0.4647 0.0272,0.1177 0.1099,0.202 0.2422,0.2116 0.3232,0.0234 0.4851,-0.2546 0.6257,-0.3075 0.1108,0.1361 0.0936,0.1951 0.2668,0.2687 0.1438,0.0611 0.2848,0.0445 0.4308,-0.0035 0.2746,-0.0902 0.4434,-0.2885 0.6736,-0.3566 0.0036,0.1762 0.0033,0.2859 0.1254,0.3548 0.4635,0.2617 1.0532,-0.7378 1.2217,-1.0518 0.2048,-0.3818 0.4341,-0.6595 0.1558,-0.6984 -0.1034,0.1531 -0.1585,0.3354 -0.2414,0.5008 -0.1302,0.26 -0.3648,0.6986 -0.5705,0.8795 -0.0774,0.068 -0.4369,0.3735 -0.5145,0.1189 -0.0548,-0.1799 0.3376,-0.5892 0.2247,-0.9906 -0.1814,0.0226 -0.2436,0.2366 -0.3066,0.4464 -0.0656,0.2184 -0.0156,0.2198 -0.3376,0.4019 -0.2836,0.1604 -0.7749,0.4949 -0.9356,0.01 0.1364,-0.1353 0.2848,-0.2107 0.4058,-0.3685 0.0844,-0.1102 0.2212,-0.399 0.0655,-0.5561 -0.1321,-0.0734 -0.4132,0.1641 -0.501,0.2904 -0.1721,0.2475 -0.1535,0.2713 -0.2022,0.5949 -0.1228,0.0975 -0.3778,0.3278 -0.6022,0.2824 -0.1474,-0.2373 0.0974,-0.6534 -0.07,-0.8971 -0.1507,0.0219 -0.3148,0.2849 -0.4119,0.3848 -0.1245,0.1281 -0.2568,0.3535 -0.4212,0.3927z"/>
    <path id="_275113224" class="fil1" d="M14.7954 2.686c0.0626,-0.082 0.485,-0.3313 0.6085,-0.3909 -0.0169,0.1641 -0.0807,0.4465 -0.1307,0.5865 -0.2451,0.0207 -0.412,-0.0221 -0.4778,-0.1956zm1.5406 -0.2975c0.1033,-0.2435 0.3164,-0.5447 0.4618,-0.7639 0.1983,-0.2991 0.4884,-0.6135 0.322,-0.8117 -0.1618,0.0531 -0.2888,0.3899 -0.3859,0.5487l-0.6717 1.1485c-0.1114,0.1918 -0.0287,0.1211 -0.2493,0.206 -0.1123,0.0433 -0.1982,0.1089 -0.3352,0.1063 0.0428,-0.2814 0.2634,-0.6928 0.2402,-0.8692 -0.1314,-0.004 -0.3382,0.156 -0.448,0.2206 -0.1342,0.0788 -0.2781,0.1665 -0.4106,0.2437 -0.1525,0.0889 -0.2653,0.1564 -0.4203,0.2356 -0.1523,0.0777 -0.3506,0.1182 -0.3632,0.289 0.1298,0.0581 0.3504,-0.1131 0.4828,-0.1704l0.1155 0.1401c0.0422,0.0448 0.0739,0.07 0.1279,0.101 0.3695,0.2122 0.659,0.0321 1.0375,-0.1452 -0.031,0.0894 -0.1083,0.1776 -0.1145,0.2224 -0.0184,0.1323 0.013,0.0608 0.0288,0.0829 0.135,0.0724 0.1587,-0.0611 0.2279,-0.1736 0.0529,-0.0859 0.1075,-0.1757 0.1607,-0.2505 0.0029,0.4121 0.1442,0.5671 0.5775,0.4483 0.2259,-0.062 0.5802,-0.2223 0.7336,-0.33 -0.0262,0.1025 -0.0747,0.2842 0.1326,0.1444 0.081,-0.0547 0.1255,-0.197 0.1776,-0.308 0.083,-0.1773 0.2907,-0.4895 0.2348,-0.669 -0.1983,-0.0328 -0.2068,0.1163 -0.2811,0.2819 -0.0571,0.1275 -0.1346,0.2683 -0.1763,0.4024 -0.3131,-0.037 -0.8022,0.4788 -1.1053,0.2802 -0.2563,-0.3822 0.1893,-0.6068 0.3921,-0.7472 0.2249,-0.1559 0.5411,-0.4048 0.4667,-0.706 -0.1811,-0.0242 -0.2138,0.0098 -0.3039,0.0991 0.0033,0.315 0.0002,0.2928 -0.2324,0.4519 -0.1428,0.0977 -0.2868,0.2104 -0.4223,0.2917z"/>
    <path id="_272173888" class="fil1" d="M17.9365 4.7729c-0.0815,-0.3228 0.2425,-0.6802 0.4476,-0.9363l0.2048 -0.2284c-0.0646,0.1891 -0.1724,0.425 -0.2591,0.6297 -0.0807,0.1906 -0.1783,0.5176 -0.3933,0.535zm1.114 -1.7139c0.0584,-0.1777 0.2165,-0.4364 0.3111,-0.6063 0.0804,-0.1445 0.269,-0.4441 0.2078,-0.6165 -0.3073,0.0928 -0.3043,0.8374 -1.0628,0.8747 -0.0007,-0.2038 0.1701,-0.3283 0.2568,-0.4884 0.1436,-0.2652 -0.1923,-0.24 -0.3932,0.2627 -0.0738,0.1845 -0.072,0.1282 -0.241,0.2145 -0.2343,0.1198 -0.2208,0.331 0.0009,0.1714 0.0513,-0.0369 0.0958,-0.0665 0.1361,-0.089 0.0647,0.0796 0.0149,0.1073 0.1373,0.1248 0.1697,0.0242 0.4642,-0.1444 0.6156,-0.1904 -0.1824,0.5119 -0.3747,0.5798 -0.6187,0.8518 -0.0841,0.0937 -0.1585,0.1471 -0.2343,0.2487 -0.1327,0.1779 -0.3038,0.3465 -0.3901,0.6062 -0.1087,0.3271 0.0853,0.6451 0.2872,0.5735 0.2783,-0.0987 0.5398,-0.9002 0.699,-1.2654 0.2209,-0.5066 0.226,-0.4198 0.7114,-0.7689 0.0672,-0.0483 0.2112,-0.1587 0.1838,-0.2498 -0.0142,-0.0055 -0.0099,-0.0173 -0.0507,-0.0112 -0.0839,0.0124 -0.3492,0.2764 -0.5562,0.3576z"/>
    <path id="_272174536" class="fil1" d="M2.0791 2.276c-0.4929,0.2687 -0.1173,0.9547 0.8357,0.7961 0.545,-0.0907 0.9655,-0.4756 1.0951,-0.9742 0.1808,-0.6961 -0.6062,-0.7625 -0.9587,-1.0514 -0.245,-0.2009 -0.0448,-0.5769 0.1323,-0.6868 0.4003,-0.2484 0.6219,0.026 0.7607,0.1141l0.1361 -0.0411c0.0185,-0.4107 -0.8876,-0.5776 -1.2531,0.0271 -0.3887,0.643 0.3009,0.8784 0.7054,1.101 0.7992,0.4399 -0.2259,1.4218 -1.0826,1.3068 -0.1463,-0.0196 -0.2703,-0.057 -0.3559,-0.1521 -0.1283,-0.1423 -0.0376,-0.2619 -0.015,-0.4395z"/>
    <path id="_272173744" class="fil1" d="M18.2296 1.4596c0.1956,0.0359 0.2524,-0.1423 0.186,-0.2685 -0.2472,-0.0584 -0.3284,0.1084 -0.186,0.2685z"/>
   </g>
  </g>
 </g>
</svg>
